<mxfile host="app.diagrams.net" modified="2024-05-02T15:36:36.026Z" agent="Mozilla/5.0 (Windows NT 10.0; Win64; x64) AppleWebKit/537.36 (KHTML, like Gecko) Chrome/124.0.0.0 Safari/537.36" etag="pih_BgFz_zva-9SdLUQn" version="24.3.1" type="device">
  <diagram id="C5RBs43oDa-KdzZeNtuy" name="Page-1">
    <mxGraphModel dx="1050" dy="569" grid="1" gridSize="10" guides="1" tooltips="1" connect="1" arrows="1" fold="1" page="1" pageScale="1" pageWidth="827" pageHeight="1169" math="0" shadow="0">
      <root>
        <mxCell id="WIyWlLk6GJQsqaUBKTNV-0" />
        <mxCell id="WIyWlLk6GJQsqaUBKTNV-1" parent="WIyWlLk6GJQsqaUBKTNV-0" />
        <mxCell id="0M-ptqD5wJ5qCWWKZlbP-8" value="" style="edgeStyle=orthogonalEdgeStyle;rounded=0;orthogonalLoop=1;jettySize=auto;html=1;" edge="1" parent="WIyWlLk6GJQsqaUBKTNV-1" source="0M-ptqD5wJ5qCWWKZlbP-3" target="0M-ptqD5wJ5qCWWKZlbP-7">
          <mxGeometry relative="1" as="geometry" />
        </mxCell>
        <mxCell id="0M-ptqD5wJ5qCWWKZlbP-3" value="start" style="ellipse;whiteSpace=wrap;html=1;" vertex="1" parent="WIyWlLk6GJQsqaUBKTNV-1">
          <mxGeometry x="369" width="90" height="40" as="geometry" />
        </mxCell>
        <mxCell id="0M-ptqD5wJ5qCWWKZlbP-10" value="" style="edgeStyle=orthogonalEdgeStyle;rounded=0;orthogonalLoop=1;jettySize=auto;html=1;" edge="1" parent="WIyWlLk6GJQsqaUBKTNV-1" source="0M-ptqD5wJ5qCWWKZlbP-7" target="0M-ptqD5wJ5qCWWKZlbP-9">
          <mxGeometry relative="1" as="geometry" />
        </mxCell>
        <mxCell id="0M-ptqD5wJ5qCWWKZlbP-7" value="dashboard" style="whiteSpace=wrap;html=1;" vertex="1" parent="WIyWlLk6GJQsqaUBKTNV-1">
          <mxGeometry x="354" y="80" width="120" height="30" as="geometry" />
        </mxCell>
        <mxCell id="0M-ptqD5wJ5qCWWKZlbP-22" value="" style="edgeStyle=orthogonalEdgeStyle;rounded=0;orthogonalLoop=1;jettySize=auto;html=1;" edge="1" parent="WIyWlLk6GJQsqaUBKTNV-1" source="0M-ptqD5wJ5qCWWKZlbP-9" target="0M-ptqD5wJ5qCWWKZlbP-21">
          <mxGeometry relative="1" as="geometry">
            <Array as="points">
              <mxPoint x="220" y="160" />
            </Array>
          </mxGeometry>
        </mxCell>
        <mxCell id="0M-ptqD5wJ5qCWWKZlbP-24" value="" style="edgeStyle=orthogonalEdgeStyle;rounded=0;orthogonalLoop=1;jettySize=auto;html=1;" edge="1" parent="WIyWlLk6GJQsqaUBKTNV-1" source="0M-ptqD5wJ5qCWWKZlbP-9" target="0M-ptqD5wJ5qCWWKZlbP-23">
          <mxGeometry relative="1" as="geometry" />
        </mxCell>
        <mxCell id="0M-ptqD5wJ5qCWWKZlbP-26" value="" style="edgeStyle=orthogonalEdgeStyle;rounded=0;orthogonalLoop=1;jettySize=auto;html=1;" edge="1" parent="WIyWlLk6GJQsqaUBKTNV-1" source="0M-ptqD5wJ5qCWWKZlbP-9" target="0M-ptqD5wJ5qCWWKZlbP-25">
          <mxGeometry relative="1" as="geometry" />
        </mxCell>
        <mxCell id="0M-ptqD5wJ5qCWWKZlbP-9" value="select" style="shape=parallelogram;perimeter=parallelogramPerimeter;whiteSpace=wrap;html=1;fixedSize=1;" vertex="1" parent="WIyWlLk6GJQsqaUBKTNV-1">
          <mxGeometry x="354" y="140" width="120" height="40" as="geometry" />
        </mxCell>
        <mxCell id="0M-ptqD5wJ5qCWWKZlbP-21" value="user" style="whiteSpace=wrap;html=1;" vertex="1" parent="WIyWlLk6GJQsqaUBKTNV-1">
          <mxGeometry x="160" y="240" width="120" height="60" as="geometry" />
        </mxCell>
        <mxCell id="0M-ptqD5wJ5qCWWKZlbP-23" value="admin" style="whiteSpace=wrap;html=1;" vertex="1" parent="WIyWlLk6GJQsqaUBKTNV-1">
          <mxGeometry x="354" y="240" width="120" height="60" as="geometry" />
        </mxCell>
        <mxCell id="0M-ptqD5wJ5qCWWKZlbP-25" value="exit" style="whiteSpace=wrap;html=1;" vertex="1" parent="WIyWlLk6GJQsqaUBKTNV-1">
          <mxGeometry x="560" y="240" width="120" height="60" as="geometry" />
        </mxCell>
      </root>
    </mxGraphModel>
  </diagram>
</mxfile>
